<svg width="40" height="40" viewBox="0 0 40 40" fill="none" xmlns="http://www.w3.org/2000/svg">
<path opacity="0.1" d="M19.8577 39.7154C30.8248 39.7154 39.7154 30.8248 39.7154 19.8577C39.7154 8.89059 30.8248 0 19.8577 0C8.89059 0 0 8.89059 0 19.8577C0 30.8248 8.89059 39.7154 19.8577 39.7154Z" fill="white"/>
<path fill-rule="evenodd" clip-rule="evenodd" d="M12.4336 28.4874C9.19643 27.424 6.84315 24.1635 6.9136 20.7468C6.75324 16.5249 10.4517 12.6233 14.6778 12.573C16.8318 12.3893 18.927 13.2258 20.5575 14.59C19.8892 15.3249 19.2088 16.052 18.4817 16.7323C17.0467 15.8605 15.3189 15.196 13.6417 15.7861C10.937 16.556 9.29873 19.75 10.2994 22.3968C11.1285 25.1606 14.4902 26.6775 17.1249 25.5164C18.4895 25.0279 19.3886 23.7691 19.7833 22.4166C19.0814 22.4024 18.3795 22.3986 17.6775 22.3948C16.8157 22.3902 15.954 22.3855 15.0924 22.3617L15.0919 22.2458C15.0881 21.3545 15.0844 20.4661 15.0885 19.5745C15.3777 19.574 15.667 19.5735 15.9564 19.5731C18.2753 19.5692 20.5969 19.5654 22.9186 19.5861C23.0789 21.8651 22.7423 24.3044 21.2609 26.1341C19.2318 28.7454 15.4828 29.5118 12.4336 28.4874ZM27.999 17.3922L28.0007 17.2283C28.7745 17.2283 29.5486 17.2283 30.3263 17.2286C30.3285 17.6173 30.3314 18.007 30.3343 18.3968C30.3372 18.787 30.3401 19.1771 30.3423 19.5663C31.1162 19.5741 31.894 19.578 32.6676 19.5818L32.68 19.5819V21.9118L30.3423 21.9235C30.3352 22.6037 30.3316 23.2807 30.328 23.96C30.3274 24.0617 30.3269 24.1633 30.3263 24.2651C29.8076 24.2625 29.2887 24.2633 28.7709 24.2642C28.5124 24.2646 28.2542 24.2651 27.9964 24.2651C27.9925 23.8746 27.9906 23.4852 27.9886 23.0962C27.9867 22.7063 27.9848 22.3169 27.9809 21.9274C27.2067 21.9193 26.4283 21.9154 25.6538 21.9115L25.6432 21.9114V19.5815C26.4212 19.5776 27.1989 19.5737 27.9809 19.566C27.9845 18.8428 27.9918 18.1161 27.999 17.3922Z" fill="#CDCED6"/>
</svg>
