<svg width="40" height="40" viewBox="0 0 40 40" fill="none" xmlns="http://www.w3.org/2000/svg">
<path opacity="0.1" d="M0 20C0 8.9543 8.9543 0 20 0C31.0457 0 40 8.9543 40 20C40 31.0457 31.0457 40 20 40C8.9543 40 0 31.0457 0 20Z" fill="white"/>
<path d="M30.7693 14.3111C29.9771 14.6507 29.1248 14.8804 28.2311 14.983C29.1436 14.4544 29.8439 13.6181 30.1745 12.6199C29.3206 13.1096 28.3745 13.4648 27.3684 13.6563C26.5623 12.8263 25.4138 12.3076 24.1421 12.3076C21.7021 12.3076 19.7232 14.2209 19.7232 16.5799C19.7232 16.9148 19.7624 17.2407 19.8382 17.5536C16.1657 17.3755 12.9095 15.6747 10.7298 13.0892C10.3495 13.72 10.1314 14.4544 10.1314 15.2373C10.1314 16.7191 10.9121 18.0273 12.0971 18.7933C11.3731 18.7713 10.6913 18.5792 10.0958 18.2583C10.0954 18.2765 10.0954 18.2947 10.0954 18.3125C10.0954 20.3825 11.6193 22.1091 13.6404 22.5013C13.27 22.5994 12.8788 22.6514 12.4764 22.6514C12.191 22.6514 11.9145 22.6249 11.645 22.5752C12.2072 24.2721 13.8388 25.5074 15.7729 25.5421C14.2603 26.6882 12.3552 27.371 10.2843 27.371C9.92837 27.371 9.57575 27.3509 9.23071 27.3111C11.1853 28.5237 13.5086 29.2307 16.0039 29.2307C24.1319 29.2307 28.5768 22.7208 28.5768 17.0747C28.5768 16.8896 28.5725 16.7051 28.564 16.5222C29.428 15.92 30.1771 15.1678 30.7693 14.3111Z" fill="#CDCED6"/>
</svg>
